<svg width="1728" height="1117" viewBox="0 0 1728 1117" fill="none" xmlns="http://www.w3.org/2000/svg">
<g clip-path="url(#clip0_2_9)">
<path d="M754.094 510.101L641.472 424.048C641.472 424.048 656.621 395.635 640.972 382.739C625.996 370.399 609.692 368.139 596.551 382.411C583.102 397.018 595.952 403.721 585.135 420.372C573.065 438.95 553.368 429.148 545.127 449.714C538.52 466.202 545.352 473.735 559.637 484.298C578.606 498.324 605.212 471.504 605.212 471.504L717.834 557.556C717.834 557.556 694.966 581.919 710.979 599.936C725.817 616.63 739.328 620.299 756.633 606.187C775.493 590.807 754.676 580.476 770.676 562.141C784.125 546.73 797.013 556.099 808.058 538.884C819.656 520.807 815.628 513.456 797.326 502.207C779.543 491.276 754.094 510.101 754.094 510.101Z" fill="#FF0000" fill-opacity="0.1"/>
<path d="M421.099 748.626L280.333 732.081C280.333 732.081 278.865 699.915 258.826 696.81C239.65 693.838 224.475 700.213 220.455 719.192C216.341 738.617 230.812 737.825 230.005 757.665C229.105 779.801 207.162 781.421 210.568 803.313C213.299 820.864 223.018 823.858 240.693 825.653C264.164 828.038 273.362 791.396 273.362 791.396L414.128 807.941C414.128 807.941 406.891 840.562 429.855 847.887C451.134 854.674 464.627 850.935 472.309 829.968C480.681 807.118 457.507 808.855 461.913 784.922C465.616 764.807 481.481 766.288 482.196 745.847C482.948 724.383 475.732 720.116 454.252 719.779C433.381 719.452 421.099 748.626 421.099 748.626Z" fill="#FF0000" fill-opacity="0.1"/>
<path d="M1389.39 249.124L1253.55 289.567C1253.55 289.567 1239.48 260.601 1219.85 265.669C1201.06 270.519 1189.64 282.373 1193.45 301.395C1197.35 320.865 1210.33 314.417 1217.43 332.96C1225.35 353.65 1205.84 363.811 1217.62 382.574C1227.07 397.617 1237.18 396.524 1254.12 391.188C1276.62 384.101 1270.59 346.807 1270.59 346.807L1406.43 306.364C1406.43 306.364 1412.68 339.189 1436.67 336.841C1458.9 334.664 1469.81 325.897 1468.58 303.601C1467.24 279.302 1446.64 290.058 1441.23 266.332C1436.68 246.391 1451.84 241.481 1444.41 222.422C1436.62 202.408 1428.31 201.341 1408.44 209.522C1389.14 217.471 1389.39 249.124 1389.39 249.124Z" fill="#FF0000" fill-opacity="0.1"/>
<path d="M1495.26 854.664L1357.04 823.304C1357.04 823.304 1358.99 791.163 1339.39 785.953C1320.63 780.967 1304.87 785.699 1298.86 804.146C1292.71 823.026 1307.19 823.771 1304.28 843.413C1301.04 865.33 1279.05 864.617 1280.12 886.747C1280.98 904.488 1290.33 908.494 1307.71 912.152C1330.8 917.009 1343.82 881.547 1343.82 881.547L1482.05 912.906C1482.05 912.906 1471.4 944.577 1493.46 954.293C1513.9 963.296 1527.71 961.007 1537.57 940.972C1548.31 919.137 1525.09 918.41 1532 895.078C1537.81 875.468 1553.43 878.621 1556.31 858.371C1559.33 837.107 1552.61 832.1 1531.28 829.49C1510.56 826.954 1495.26 854.664 1495.26 854.664Z" fill="#FF0000" fill-opacity="0.1"/>
<path d="M1052.04 114.859L915.722 76.0344C915.722 76.0344 919.412 44.0469 900.127 37.7793C881.672 31.7817 865.673 35.6498 858.673 53.7429C851.507 72.2613 865.919 73.7913 861.952 93.2473C857.526 114.955 835.607 113.049 835.471 135.203C835.362 152.966 844.478 157.473 861.64 162.07C884.427 168.175 899.362 133.473 899.362 133.473L1035.68 172.298C1035.68 172.298 1023.32 203.343 1044.82 214.244C1064.74 224.344 1078.66 222.809 1089.59 203.339C1101.51 182.121 1078.35 180.132 1086.52 157.21C1093.39 137.945 1108.82 141.943 1112.79 121.879C1116.96 100.81 1110.52 95.4454 1089.37 91.6805C1068.82 88.0223 1052.04 114.859 1052.04 114.859Z" fill="#FF0000" fill-opacity="0.1"/>
<path d="M425.687 189.843L286.249 215.259C286.249 215.259 275.423 184.934 255.353 187.835C236.148 190.611 223.506 201.151 225.222 220.475C226.979 240.254 240.583 235.257 245.623 254.463C251.247 275.892 230.742 283.869 240.411 303.802C248.163 319.784 258.333 319.799 275.759 316.338C298.898 311.743 296.959 274.014 296.959 274.014L436.396 248.598C436.396 248.598 439.033 281.907 463.136 282.184C485.469 282.44 497.275 274.913 498.478 252.615C499.79 228.315 478.141 236.764 475.342 212.591C472.991 192.273 488.593 189.042 483.29 169.288C477.72 148.545 469.572 146.579 448.935 152.549C428.884 158.35 425.687 189.843 425.687 189.843Z" fill="#FF0000" fill-opacity="0.1"/>
<path d="M1122.32 672.87L988.161 718.574C988.161 718.574 972.98 690.177 953.558 696.006C934.972 701.584 924.023 713.874 928.57 732.734C933.225 752.037 945.944 745.088 953.761 763.341C962.484 783.706 943.379 794.62 955.883 812.91C965.908 827.573 975.968 826.088 992.693 820.095C1014.9 812.137 1007.42 775.106 1007.42 775.106L1141.58 729.402C1141.58 729.402 1149.1 761.959 1172.98 758.677C1195.11 755.637 1205.68 746.451 1203.58 724.22C1201.29 699.992 1181.13 711.542 1174.79 688.045C1169.47 668.296 1184.42 662.799 1176.27 644.044C1167.7 624.349 1159.35 623.607 1139.82 632.555C1120.84 641.25 1122.32 672.87 1122.32 672.87Z" fill="#FF0000" fill-opacity="0.1"/>
<path d="M1757.51 400.904L1616.4 387.625C1616.4 387.625 1614.19 355.502 1594.08 352.861C1574.84 350.335 1559.82 357.059 1556.24 376.127C1552.58 395.642 1567.03 394.515 1566.68 414.368C1566.29 436.519 1544.39 438.647 1548.31 460.454C1551.44 477.938 1561.23 480.705 1578.94 482.091C1602.46 483.931 1610.81 447.085 1610.81 447.085L1751.92 460.365C1751.92 460.365 1745.44 493.144 1768.57 499.935C1790 506.228 1803.4 502.178 1810.6 481.038C1818.44 458 1795.31 460.274 1799.16 436.245C1802.39 416.049 1818.29 417.162 1818.53 396.711C1818.78 375.234 1811.47 371.136 1789.99 371.297C1769.12 371.453 1757.51 400.904 1757.51 400.904Z" fill="#FF0000" fill-opacity="0.1"/>
<path d="M34.9047 545.172L-105.647 563.45C-105.647 563.45 -114.914 532.612 -135.105 534.487C-154.427 536.28 -167.59 546.163 -166.86 565.549C-166.114 585.392 -152.273 581.094 -148.218 600.532C-143.694 622.22 -164.579 629.142 -155.938 649.542C-149.01 665.898 -138.854 666.431 -121.275 663.863C-97.9313 660.453 -97.9454 622.674 -97.9454 622.674L42.6062 604.397C42.6062 604.397 43.5414 637.797 67.5992 639.302C89.8905 640.696 102.064 633.78 104.402 611.573C106.951 587.371 84.8991 594.706 83.3365 570.421C82.0231 550.01 97.7701 547.578 93.4801 527.58C88.9753 506.58 80.9374 504.202 60.0235 509.112C39.7026 513.884 34.9047 545.172 34.9047 545.172Z" fill="#FF0000" fill-opacity="0.1"/>
</g>
<defs>
<clipPath id="clip0_2_9">
<rect width="1728" height="1117" fill="white"/>
</clipPath>
</defs>
</svg>
