<?xml version="1.0" standalone="no"?>
<!DOCTYPE svg PUBLIC "-//W3C//DTD SVG 20010904//EN"
 "http://www.w3.org/TR/2001/REC-SVG-20010904/DTD/svg10.dtd">
<svg version="1.0" xmlns="http://www.w3.org/2000/svg"
 width="2500.000000pt" height="1266.000000pt" viewBox="0 0 2500.000000 1266.000000"
 preserveAspectRatio="xMidYMid meet">
<metadata>
Created by potrace 1.16, written by Peter Selinger 2001-2019
</metadata>
<g transform="translate(0.000000,1266.000000) scale(0.100000,-0.100000)"
fill="#000000" stroke="none">
<path d="M10020 10520 c-1970 -986 -2339 -1174 -2358 -1201 l-22 -32 0 -2856
c0 -2762 1 -2857 19 -2891 10 -19 37 -48 60 -65 l43 -30 390 -3 390 -3 39 39
c36 37 39 44 39 96 0 50 -4 60 -34 94 l-34 37 -269 5 c-231 4 -272 7 -300 23
-69 37 -63 -205 -70 2781 l-6 2704 2244 1122 2244 1122 2103 -1139 2104 -1138
-6 -1960 c-4 -1078 -6 -2119 -6 -2313 0 -218 -4 -368 -10 -392 -7 -26 -23 -49
-47 -67 l-36 -28 -251 0 c-369 0 -349 -18 -356 315 -5 256 -7 262 -67 301 -34
23 -103 25 -144 4 -16 -9 -39 -30 -49 -48 -19 -31 -20 -56 -20 -761 l0 -728
39 -39 c35 -36 43 -39 92 -39 37 0 65 7 87 20 58 35 62 60 62 349 l0 260 31
36 c45 51 79 57 338 53 339 -5 324 13 331 -373 4 -193 9 -276 18 -292 19 -33
64 -53 123 -53 46 0 55 4 90 39 l39 39 0 879 c0 978 -2 951 67 1051 40 58 100
105 164 127 47 17 157 20 209 5 32 -9 55 -22 159 -92 52 -35 137 -17 180 38
26 32 28 111 6 154 -18 34 -98 97 -171 133 -80 40 -161 57 -275 57 -143 0
-240 -29 -345 -100 l-46 -32 3 1779 c4 1699 3 1780 -14 1807 -10 15 -26 30
-35 33 -9 4 -988 532 -2174 1175 -1791 969 -2164 1168 -2195 1168 -30 -1 -538
-251 -2373 -1170z"/>
<path d="M11165 10100 c-30 -20 -95 -89 -95 -102 0 -3 -6 -13 -13 -20 -6 -7
-25 -33 -41 -58 -16 -25 -43 -59 -59 -76 -78 -83 -142 -269 -153 -444 -9 -154
-6 -413 6 -467 12 -53 35 -108 92 -228 25 -52 76 -136 88 -145 3 -3 25 -30 48
-62 58 -79 192 -211 230 -227 18 -7 32 -17 32 -20 0 -4 21 -18 46 -31 44 -21
55 -22 163 -17 64 3 132 10 151 16 19 5 55 15 80 21 99 26 203 96 248 165 30
48 53 112 62 174 5 36 10 224 10 416 l0 350 -60 120 c-34 66 -86 150 -118 189
-32 39 -65 81 -74 94 -27 40 -150 175 -231 254 -111 109 -132 118 -270 118
-95 0 -117 -3 -142 -20z"/>
<path d="M12650 10101 c-176 -60 -221 -142 -318 -581 -35 -159 -74 -414 -87
-570 -30 -360 -26 -486 17 -570 15 -30 98 -110 114 -110 6 0 22 -8 35 -19 34
-26 231 -73 319 -75 172 -5 345 50 435 138 20 19 73 93 102 141 27 47 103 206
103 218 0 7 7 22 15 34 25 36 34 139 31 353 -3 177 -6 212 -24 255 -11 28 -30
91 -42 140 -12 50 -29 99 -36 110 -8 11 -14 33 -14 50 0 28 -41 122 -58 135
-4 3 -15 16 -24 30 -39 61 -268 310 -285 310 -6 0 -13 6 -15 13 -8 21 -202 20
-268 -2z"/>
<path d="M13691 8883 c-59 -12 -143 -84 -172 -146 -11 -23 -24 -49 -28 -57
-22 -36 -90 -230 -101 -285 -7 -33 -20 -82 -30 -110 -10 -27 -21 -73 -24 -102
-3 -28 -14 -69 -24 -90 -11 -21 -23 -56 -27 -78 -5 -22 -10 -47 -12 -55 -14
-56 -18 -102 -18 -230 1 -128 3 -151 22 -193 13 -26 27 -53 33 -60 5 -6 29
-37 52 -67 54 -72 90 -109 106 -110 6 0 12 -4 12 -8 0 -10 74 -88 116 -122 17
-14 62 -50 100 -81 103 -83 156 -102 284 -102 86 -1 114 3 150 20 61 28 128
51 170 58 19 4 62 21 95 40 52 28 61 38 69 71 5 22 13 42 18 45 5 3 9 9 8 13
-3 12 12 92 26 134 30 92 15 407 -33 687 -8 50 -18 113 -22 140 -4 28 -15 73
-26 100 -23 63 -129 223 -195 295 -46 50 -138 153 -150 169 -3 3 -27 24 -55
46 -88 70 -107 77 -218 80 -56 2 -113 1 -126 -2z"/>
<path d="M10180 8843 c-8 -3 -34 -14 -57 -24 -23 -11 -46 -19 -50 -19 -17 0
-126 -89 -142 -117 -35 -56 -41 -116 -41 -380 0 -181 4 -282 14 -338 15 -81
48 -195 66 -227 6 -10 10 -26 10 -35 0 -10 8 -31 18 -48 10 -16 24 -50 30 -75
13 -46 18 -59 46 -123 9 -21 16 -43 16 -50 0 -7 18 -47 39 -89 22 -43 42 -91
46 -109 10 -44 101 -129 185 -173 52 -28 96 -42 163 -53 138 -22 171 -8 310
128 38 37 75 70 83 73 8 3 14 11 14 18 1 7 26 25 58 41 31 15 75 38 97 52 22
14 46 28 54 31 31 16 115 111 134 154 6 14 16 28 22 32 6 5 10 73 10 180 -1
145 -4 187 -23 258 -24 92 -81 216 -128 278 -16 20 -40 53 -53 72 -33 49 -234
238 -264 249 -13 5 -28 17 -60 47 -45 42 -165 134 -176 134 -6 0 -11 4 -11 9
0 5 -46 32 -103 60 -103 51 -104 51 -198 50 -52 0 -101 -3 -109 -6z"/>
<path d="M12020 8172 c-19 -2 -42 -9 -50 -16 -8 -8 -44 -26 -80 -42 -88 -38
-127 -63 -180 -116 -78 -77 -92 -99 -127 -197 -18 -52 -40 -105 -48 -117 -8
-13 -15 -30 -15 -37 0 -8 -7 -20 -15 -27 -8 -7 -24 -32 -36 -55 -12 -24 -48
-70 -80 -103 -33 -33 -59 -63 -59 -68 0 -4 -25 -45 -55 -90 -30 -46 -55 -87
-55 -91 0 -15 -80 -160 -95 -173 -8 -7 -15 -19 -15 -26 0 -8 -6 -14 -13 -14
-7 0 -20 -8 -28 -17 -9 -10 -29 -28 -45 -40 -84 -64 -125 -93 -130 -93 -18 0
-86 -66 -121 -119 -31 -45 -44 -74 -51 -123 -5 -34 -8 -65 -7 -68 2 -3 6 -30
9 -60 8 -73 17 -113 26 -125 5 -5 9 -13 9 -17 1 -5 1 -9 2 -10 0 -2 3 -16 5
-33 3 -16 14 -45 25 -63 10 -18 19 -39 19 -47 0 -7 3 -15 8 -17 4 -1 19 -22
34 -45 24 -37 210 -183 233 -183 5 0 16 -7 25 -15 9 -8 84 -50 166 -92 153
-78 304 -139 384 -154 25 -4 70 -15 100 -23 46 -13 143 -16 596 -16 l542 0 73
25 c41 14 82 30 91 35 10 5 34 14 55 19 61 15 127 41 138 54 12 13 42 34 65
44 51 22 78 35 105 53 17 11 37 23 45 26 15 7 106 81 145 119 39 37 113 139
145 200 18 33 47 82 64 110 62 99 78 237 45 393 -12 58 -18 67 -89 135 -41 40
-97 91 -124 112 -28 22 -64 54 -81 70 -17 17 -48 45 -70 64 -53 46 -205 189
-205 194 0 2 -43 46 -96 98 -53 52 -124 122 -159 157 -35 34 -66 62 -69 62 -3
0 -36 30 -74 68 -56 56 -107 102 -237 217 -14 13 -46 33 -65 42 -8 4 -17 10
-20 14 -14 20 -348 189 -374 189 -8 0 -16 6 -19 14 -6 15 -97 24 -167 18z"/>
<path d="M3580 5263 c-23 -21 -43 -62 -80 -167 -59 -163 -62 -196 -21 -237 24
-24 38 -29 76 -29 25 0 54 4 64 10 31 16 182 257 188 298 12 87 -50 152 -144
152 -43 0 -58 -5 -83 -27z"/>
<path d="M3913 5055 c-18 -8 -42 -29 -53 -47 -20 -32 -20 -45 -18 -766 l3
-734 37 -34 c34 -31 44 -34 97 -34 45 0 65 5 86 22 53 41 55 58 55 425 0 290
2 342 16 361 17 24 51 29 76 10 16 -13 153 -227 217 -340 47 -84 80 -108 148
-108 38 0 63 6 82 20 16 10 61 74 101 142 174 292 195 316 243 278 22 -18 22
-20 27 -380 l5 -362 37 -34 c34 -31 44 -34 97 -34 45 0 65 5 86 22 56 44 55
27 55 795 0 689 -1 709 -20 741 -41 67 -122 90 -190 53 -29 -15 -70 -77 -255
-387 -144 -241 -229 -373 -244 -380 -17 -9 -30 -9 -46 -2 -14 6 -102 141 -234
359 -117 191 -222 360 -233 375 -40 50 -113 66 -175 39z"/>
<path d="M8883 5055 c-18 -8 -42 -29 -53 -47 -20 -32 -20 -45 -18 -766 l3
-734 37 -34 c34 -31 44 -34 97 -34 45 0 65 5 86 22 53 41 55 58 55 425 0 290
2 342 16 361 17 24 51 29 76 10 16 -13 153 -227 217 -340 47 -84 80 -108 148
-108 38 0 63 6 82 20 16 10 61 74 101 142 174 292 195 316 243 278 22 -18 22
-20 27 -380 l5 -362 37 -34 c34 -31 44 -34 97 -34 45 0 65 5 86 22 56 44 55
27 55 795 0 689 -1 709 -20 741 -41 67 -122 90 -190 53 -29 -15 -70 -77 -255
-387 -144 -241 -229 -373 -244 -380 -17 -9 -30 -9 -46 -2 -14 6 -102 141 -234
359 -117 191 -222 360 -233 375 -40 50 -113 66 -175 39z"/>
<path d="M13527 5037 c-63 -59 -60 -161 6 -211 30 -23 40 -24 202 -28 185 -4
203 -9 242 -66 17 -25 18 -68 23 -617 4 -444 8 -595 17 -612 25 -43 63 -63
119 -63 45 0 59 5 88 31 20 17 40 47 46 67 6 23 10 249 10 600 0 621 -2 604
63 639 25 14 67 19 203 23 154 4 174 7 194 25 69 62 66 167 -6 224 -26 21 -34
21 -600 21 l-573 0 -34 -33z"/>
<path d="M18983 5055 c-18 -8 -42 -29 -53 -47 -20 -32 -20 -45 -18 -766 l3
-734 37 -34 c34 -31 44 -34 97 -34 45 0 65 5 86 22 53 41 55 58 55 425 0 290
2 342 16 361 17 24 51 29 76 10 16 -13 153 -227 217 -340 47 -84 80 -108 148
-108 38 0 63 6 82 20 16 10 61 74 101 142 174 292 195 316 243 278 22 -18 22
-20 27 -380 l5 -362 37 -34 c34 -31 44 -34 97 -34 45 0 65 5 86 22 56 44 55
27 55 795 0 689 -1 709 -20 741 -41 67 -122 90 -190 53 -29 -15 -70 -77 -255
-387 -144 -241 -229 -373 -244 -380 -17 -9 -30 -9 -46 -2 -14 6 -102 141 -234
359 -117 191 -222 360 -233 375 -40 50 -113 66 -175 39z"/>
<path d="M2979 5021 l-39 -39 0 -732 0 -732 39 -39 c35 -35 44 -39 90 -39 64
0 105 20 128 63 17 30 18 82 18 747 0 665 -1 717 -18 747 -23 43 -64 63 -128
63 -46 0 -55 -4 -90 -39z"/>
<path d="M6810 5053 c-32 -12 -71 -59 -89 -107 -88 -235 -482 -1340 -487
-1363 -9 -44 26 -117 65 -137 45 -24 111 -20 152 7 27 18 42 43 74 122 36 91
44 103 87 132 36 24 64 33 113 38 100 11 355 1 385 -14 49 -26 82 -67 152
-193 250 -447 600 -723 1040 -820 73 -16 143 -21 323 -25 203 -5 244 -3 354
16 230 39 572 174 605 240 37 71 8 169 -59 197 -54 22 -81 17 -195 -35 -211
-99 -369 -139 -575 -148 -231 -9 -442 24 -618 97 -115 48 -269 155 -370 256
-203 206 -334 441 -495 889 -181 503 -280 773 -292 794 -25 47 -112 75 -170
54z m83 -635 c37 -81 107 -288 107 -317 0 -42 -28 -67 -85 -75 -102 -16 -195
19 -195 72 0 24 107 322 122 339 18 22 35 15 51 -19z"/>
<path d="M11090 5039 c-285 -74 -507 -298 -580 -584 -26 -101 -28 -279 -5
-386 62 -279 305 -526 589 -599 96 -24 286 -27 388 -5 243 51 472 243 569 477
77 188 79 436 4 621 -95 233 -304 414 -549 477 -109 27 -309 27 -416 -1z m351
-275 c179 -53 320 -194 373 -373 9 -30 16 -91 16 -136 0 -142 -53 -268 -155
-370 -104 -104 -228 -155 -376 -155 -230 0 -428 141 -505 359 -26 73 -32 208
-14 289 39 169 180 318 359 379 82 28 220 31 302 7z"/>
<path d="M12701 5044 c-129 -35 -238 -122 -289 -232 -24 -50 -27 -69 -27 -162
0 -96 3 -110 29 -165 66 -134 196 -225 446 -311 152 -52 196 -72 245 -116 46
-40 65 -77 65 -128 0 -57 -21 -101 -66 -139 -52 -42 -120 -61 -223 -61 -69 0
-96 5 -136 24 -103 47 -154 116 -155 206 0 87 -69 148 -153 137 -109 -15 -151
-118 -112 -272 43 -166 201 -312 390 -360 79 -20 272 -20 350 0 141 37 271
129 328 232 75 138 75 324 0 453 -42 71 -131 151 -219 197 -43 23 -146 64
-227 93 -163 56 -206 79 -256 135 -29 34 -33 43 -28 82 6 52 27 79 82 104 55
25 185 26 240 0 47 -21 105 -83 105 -111 0 -40 32 -100 65 -120 67 -41 166
-17 201 51 25 49 16 139 -24 222 -54 117 -166 206 -303 242 -70 19 -257 18
-328 -1z"/>
<path d="M17670 5039 c-285 -74 -507 -298 -580 -584 -26 -101 -28 -279 -5
-386 62 -279 305 -526 589 -599 96 -24 286 -27 388 -5 243 51 472 243 569 477
77 188 79 436 4 621 -95 233 -304 414 -549 477 -109 27 -309 27 -416 -1z m351
-275 c179 -53 320 -194 373 -373 9 -30 16 -91 16 -136 0 -142 -53 -268 -155
-370 -104 -104 -228 -155 -376 -155 -230 0 -428 141 -505 359 -26 73 -32 208
-14 289 39 169 180 318 359 379 82 28 220 31 302 7z"/>
<path d="M20740 5044 c-19 -8 -45 -25 -58 -37 -54 -50 -52 -24 -52 -757 0
-733 -2 -707 52 -757 55 -52 65 -53 523 -53 l425 0 36 33 c61 56 58 154 -6
212 -21 19 -40 20 -339 25 -423 7 -411 0 -411 231 l0 142 34 32 c44 41 68 45
304 45 213 0 239 6 267 60 8 16 15 50 15 75 0 25 -7 59 -15 75 -28 54 -55 60
-258 60 -239 0 -270 4 -313 45 l-34 32 0 102 c0 99 1 103 28 131 45 45 84 50
392 50 308 1 315 2 351 56 23 36 25 113 4 154 -31 60 -33 60 -492 60 -351 -1
-424 -3 -453 -16z"/>
<path d="M3051 2583 c-23 -21 -411 -1082 -411 -1127 0 -38 41 -76 82 -76 50 0
73 23 103 100 28 73 73 123 123 137 15 5 90 8 167 8 111 0 146 -4 170 -17 49
-26 81 -69 105 -136 13 -35 32 -70 44 -77 53 -38 136 -1 136 61 0 50 -385
1104 -411 1127 -12 9 -36 17 -54 17 -18 0 -42 -8 -54 -17z m82 -427 c22 -22
109 -268 103 -291 -9 -37 -31 -56 -76 -66 -90 -20 -171 8 -185 64 -7 26 77
261 102 290 20 21 37 22 56 3z"/>
<path d="M9151 2583 c-23 -21 -411 -1082 -411 -1127 0 -38 41 -76 82 -76 50 0
73 23 103 100 28 73 73 123 123 137 15 5 90 8 167 8 111 0 146 -4 170 -17 49
-26 81 -69 105 -136 13 -35 32 -70 44 -77 53 -38 136 -1 136 61 0 50 -385
1104 -411 1127 -12 9 -36 17 -54 17 -18 0 -42 -8 -54 -17z m82 -427 c22 -22
109 -268 103 -291 -9 -37 -31 -56 -76 -66 -90 -20 -171 8 -185 64 -7 26 77
261 102 290 20 21 37 22 56 3z"/>
<path d="M12920 2580 c-20 -20 -20 -29 -20 -595 0 -562 0 -575 20 -595 29 -29
99 -28 128 3 20 21 22 34 22 146 0 134 9 165 57 197 21 14 47 19 108 19 125 0
158 -21 185 -118 30 -111 125 -212 228 -243 53 -16 155 -18 182 -4 31 16 44
72 26 113 -11 28 -23 38 -53 46 -21 6 -48 11 -61 11 -35 0 -98 36 -122 69 -62
88 -53 138 46 242 46 48 86 101 102 136 24 53 27 69 27 173 0 109 -2 119 -32
182 -41 88 -113 160 -201 201 l-67 32 -277 3 c-268 3 -278 2 -298 -18z m566
-175 c38 -18 66 -42 89 -74 81 -111 67 -242 -35 -335 -68 -62 -97 -70 -250
-70 -207 -1 -220 13 -220 253 0 159 5 186 42 220 36 34 75 41 201 37 103 -4
125 -8 173 -31z"/>
<path d="M17985 2582 c-200 -59 -360 -221 -421 -427 -12 -41 -18 -93 -18 -165
0 -176 56 -312 179 -435 123 -124 251 -175 436 -175 156 0 253 32 376 124 86
65 104 125 53 176 -35 35 -77 26 -157 -34 -100 -75 -176 -100 -297 -94 -76 3
-102 9 -159 35 -282 133 -349 498 -131 717 93 92 194 130 334 124 113 -5 174
-28 264 -100 72 -58 104 -62 148 -18 59 59 22 125 -116 208 -99 60 -157 76
-301 79 -102 2 -143 -1 -190 -15z"/>
<path d="M19356 2579 l-27 -21 3 -422 3 -422 37 -75 c46 -94 122 -168 215
-212 60 -28 80 -32 173 -35 156 -6 251 30 353 134 56 57 101 145 116 228 16
84 15 770 -1 799 -26 50 -86 62 -131 27 l-26 -20 -3 -393 c-3 -346 -5 -396
-20 -430 -50 -110 -151 -177 -267 -177 -86 0 -152 30 -209 95 -70 79 -72 96
-72 522 l0 374 -25 24 c-31 32 -82 33 -119 4z"/>
<path d="M4330 2570 c-20 -20 -20 -33 -20 -585 0 -552 0 -565 20 -585 31 -31
102 -28 129 6 20 26 21 38 21 333 0 261 2 310 16 329 22 31 64 29 96 -5 14
-16 123 -167 243 -338 120 -170 224 -318 233 -327 10 -12 30 -18 59 -18 51 0
79 23 88 72 3 18 5 272 3 564 -3 507 -4 533 -22 553 -27 30 -105 30 -132 0
-18 -20 -19 -44 -24 -339 -4 -248 -8 -321 -19 -333 -16 -20 -61 -22 -83 -4 -8
6 -111 149 -228 317 -286 408 -262 380 -316 380 -31 0 -50 -6 -64 -20z"/>
<path d="M6920 2568 c-20 -21 -20 -32 -20 -583 l0 -562 23 -21 c35 -33 99 -30
126 4 20 26 21 39 21 294 0 255 1 268 21 294 26 33 68 35 96 4 21 -24 138
-211 167 -265 24 -48 56 -73 91 -73 46 0 66 20 130 127 121 203 153 241 195
228 45 -14 50 -47 50 -328 0 -263 0 -264 23 -285 33 -31 96 -30 125 1 l22 23
0 560 0 561 -23 21 c-16 15 -36 22 -65 22 -52 0 -45 9 -246 -327 -86 -145
-166 -267 -176 -273 -30 -16 -55 -12 -77 13 -12 12 -89 135 -173 272 -198 325
-190 315 -245 315 -33 0 -50 -6 -65 -22z"/>
<path d="M10412 2567 l-22 -23 0 -545 c0 -597 -3 -572 60 -604 24 -12 81 -15
317 -15 313 0 324 2 337 55 9 36 -17 93 -46 99 -13 3 -112 7 -220 8 -182 3
-199 5 -225 24 -53 40 -53 35 -53 520 0 441 0 452 -21 478 -28 35 -95 37 -127
3z"/>
<path d="M14633 2570 c-17 -10 -37 -28 -42 -39 -7 -13 -11 -194 -11 -548 0
-580 -2 -556 60 -588 24 -12 86 -15 358 -15 l329 0 21 23 c30 32 29 87 0 115
-22 19 -35 21 -268 24 -267 3 -276 5 -310 61 -16 26 -20 51 -20 135 0 114 10
146 57 178 24 16 53 20 209 24 126 3 186 9 196 18 38 31 21 127 -24 136 -13 3
-97 7 -188 8 -181 4 -205 11 -236 69 -21 42 -19 156 6 196 34 56 43 58 312 61
231 3 247 5 264 24 25 26 24 90 0 117 -19 20 -28 21 -350 21 -310 0 -333 -1
-363 -20z"/>
<path d="M16323 2570 c-80 -26 -164 -100 -190 -168 -22 -58 -22 -162 0 -214
22 -52 100 -132 161 -167 28 -16 105 -48 171 -71 137 -48 192 -77 229 -120 71
-86 25 -213 -93 -255 -25 -8 -77 -15 -120 -15 -141 0 -224 63 -241 182 -7 45
-15 68 -31 81 -28 23 -91 22 -120 -2 -21 -17 -24 -27 -23 -93 1 -132 70 -229
212 -296 69 -33 87 -37 176 -40 204 -9 346 59 413 196 24 50 28 69 28 147 0
78 -4 97 -28 147 -50 102 -131 158 -331 228 -179 63 -246 114 -246 189 0 77
67 120 186 121 61 0 76 -4 116 -29 48 -30 78 -73 78 -111 0 -11 11 -32 25 -45
34 -34 87 -34 122 1 23 23 25 31 20 85 -9 103 -75 186 -186 237 -78 36 -237
41 -328 12z"/>
<path d="M21043 2570 c-17 -10 -37 -28 -42 -39 -7 -13 -11 -194 -11 -548 0
-580 -2 -556 60 -588 24 -12 86 -15 358 -15 l329 0 21 23 c30 32 29 87 0 115
-22 19 -35 21 -268 24 -267 3 -276 5 -310 61 -16 26 -20 51 -20 135 0 114 10
146 57 178 24 16 53 20 209 24 126 3 186 9 196 18 38 31 21 127 -24 136 -13 3
-97 7 -188 8 -181 4 -205 11 -236 69 -21 42 -19 156 6 196 34 56 43 58 312 61
231 3 247 5 264 24 25 26 24 90 0 117 -19 20 -28 21 -350 21 -310 0 -333 -1
-363 -20z"/>
<path d="M5980 2550 c-20 -20 -20 -33 -20 -575 0 -542 0 -555 20 -575 24 -24
86 -27 118 -4 l22 15 0 563 c0 533 -1 564 -18 579 -27 24 -97 22 -122 -3z"/>
</g>
</svg>
